<?xml version="1.0" standalone="no"?>
<!DOCTYPE svg PUBLIC "-//W3C//DTD SVG 20010904//EN"
 "http://www.w3.org/TR/2001/REC-SVG-20010904/DTD/svg10.dtd">
<svg version="1.0" xmlns="http://www.w3.org/2000/svg"
 width="1024.000000pt" height="1024.000000pt" viewBox="0 0 1024.000000 1024.000000"
 preserveAspectRatio="xMidYMid meet">

<g transform="translate(0.000000,1024.000000) scale(0.100000,-0.100000)"
fill="#000000" stroke="none">
<path d="M3120 7773 c-153 -14 -302 -48 -431 -98 -92 -35 -245 -118 -294 -159
l-30 -25 79 -1 c43 0 119 -5 168 -12 l89 -12 -72 -33 c-164 -76 -344 -222
-453 -367 -50 -66 -156 -243 -156 -259 0 -4 9 -3 20 3 26 14 216 80 230 80 6
0 0 -15 -14 -33 -38 -50 -84 -158 -108 -255 -29 -115 -32 -348 -6 -464 106
-476 499 -822 961 -846 l99 -5 -6 -26 c-14 -59 -18 -339 -7 -441 31 -263 95
-457 234 -707 29 -51 55 -93 60 -93 4 0 7 12 7 27 0 35 50 243 58 243 4 0 21
-26 37 -58 142 -271 368 -501 668 -680 185 -109 262 -148 252 -126 -10 25 -74
278 -70 282 1 1 37 -18 79 -43 109 -64 232 -125 393 -194 223 -95 196 -93 364
-26 142 56 428 196 495 241 43 29 43 29 3 -132 -18 -68 -30 -127 -27 -129 8
-8 206 103 338 190 256 168 449 377 571 616 l32 64 15 -35 c8 -19 23 -84 35
-143 l20 -108 34 53 c58 91 161 306 192 401 72 215 103 465 83 673 -6 66 -13
126 -17 135 -5 14 8 17 97 22 264 15 506 130 693 328 168 178 261 382 286 630
20 205 -29 448 -121 593 -16 25 -26 46 -22 46 18 0 215 -70 228 -81 22 -18 17
-3 -28 84 -86 164 -220 318 -374 428 -91 65 -207 129 -235 129 -10 0 -19 4
-19 9 0 11 177 31 278 31 l77 1 -29 23 c-94 77 -304 171 -483 216 -483 122
-995 -2 -1328 -321 l-84 -81 -48 16 c-138 45 -383 53 -518 17 -75 -20 -205
-77 -268 -118 -27 -17 -29 -17 -60 1 -145 86 -234 119 -377 137 -104 13 -252
1 -366 -31 l-68 -18 -80 75 c-171 160 -379 271 -621 328 -150 36 -325 51 -455
38z m390 -208 c232 -61 439 -181 594 -346 36 -38 66 -73 66 -78 0 -4 -19 -14
-42 -21 -154 -45 -360 -200 -465 -348 -25 -35 -51 -61 -57 -58 -198 89 -374
106 -567 57 -41 -10 -76 -17 -77 -16 -7 6 82 67 133 91 l50 24 -84 -6 c-114
-8 -219 -36 -321 -86 -67 -33 -104 -61 -171 -128 -127 -125 -177 -236 -189
-420 l-6 -95 -22 70 c-104 320 72 730 383 889 l50 25 -70 1 c-66 0 -230 -22
-271 -36 -26 -9 69 88 139 143 72 56 204 126 294 157 110 37 196 49 341 45 72
-2 132 -3 132 -1 0 2 -38 21 -84 42 -82 39 -264 90 -320 90 -45 0 -26 9 50 25
49 10 118 13 239 11 146 -3 185 -8 275 -31z m3765 14 c38 -10 44 -14 25 -16
-114 -15 -306 -76 -380 -122 -26 -15 -18 -16 149 -16 154 0 186 -3 256 -23
150 -44 331 -150 435 -256 30 -31 52 -56 49 -56 -3 0 -50 7 -105 15 -54 8
-130 15 -169 15 l-70 -1 55 -29 c188 -103 340 -310 384 -522 28 -137 12 -320
-36 -412 -12 -22 -13 -16 -9 55 7 175 -45 307 -173 434 -124 123 -272 191
-466 215 -118 14 -132 13 -95 -6 44 -23 156 -96 153 -100 -2 -1 -39 6 -83 17
-201 48 -362 32 -561 -57 -6 -3 -23 14 -37 38 -34 59 -158 184 -237 240 -74
52 -185 110 -247 129 -24 6 -43 16 -43 20 0 14 73 94 134 147 171 149 393 255
621 297 95 17 372 13 450 -6z m-2551 -399 c132 -29 305 -147 378 -258 15 -22
15 -22 56 31 97 129 322 247 470 247 l44 0 -49 -54 c-28 -30 -64 -72 -81 -94
l-32 -39 138 -6 c153 -5 253 -29 390 -92 142 -66 306 -192 374 -288 l21 -29
-29 6 c-53 11 -178 25 -229 26 l-49 0 84 -43 c253 -127 471 -376 574 -656 20
-52 34 -96 33 -97 -1 -1 -29 18 -62 43 -53 41 -245 142 -269 143 -5 0 9 -19
31 -43 98 -106 202 -291 258 -460 47 -142 65 -257 65 -422 0 -166 -17 -272
-67 -429 l-16 -49 -21 69 c-32 101 -90 204 -153 274 -31 33 -57 59 -60 56 -2
-2 3 -38 11 -80 55 -265 -33 -566 -235 -803 -46 -54 -229 -222 -243 -223 -5 0
-3 6 3 13 33 41 101 257 101 323 0 9 -19 -10 -43 -42 -84 -114 -243 -242 -395
-318 l-53 -27 48 63 c87 113 148 248 179 393 18 87 31 295 17 295 -5 0 -25
-16 -44 -36 -183 -191 -413 -263 -598 -189 l-43 18 55 17 c30 10 71 27 90 39
94 58 182 197 212 336 23 102 30 302 16 425 -44 384 -207 634 -430 659 -220
25 -393 -124 -484 -415 -83 -263 -74 -641 19 -831 51 -106 152 -189 263 -218
l46 -12 -67 -22 c-68 -23 -173 -30 -239 -16 -94 20 -201 83 -310 184 -79 72
-83 69 -74 -58 17 -234 72 -398 191 -569 l43 -62 -42 21 c-151 77 -312 215
-410 349 -18 25 -18 25 -12 -30 9 -80 33 -167 64 -232 15 -32 26 -58 23 -58
-2 0 -36 27 -76 59 -307 251 -462 618 -403 956 9 49 15 91 13 92 -2 2 -31 -26
-65 -62 -67 -73 -113 -153 -146 -260 l-22 -70 -27 84 c-47 147 -59 247 -53
431 12 336 101 565 332 848 15 17 24 32 22 32 -3 0 -43 -17 -89 -39 -80 -37
-142 -75 -221 -135 l-38 -29 27 74 c106 297 336 565 603 702 l76 39 -94 -7
c-52 -3 -117 -11 -144 -16 -26 -6 -51 -9 -54 -6 -3 3 32 44 77 90 148 155 315
249 535 302 17 4 87 10 157 14 l127 6 -79 92 c-44 50 -80 94 -80 96 0 5 105
-9 164 -23z m474 -1475 c76 -32 121 -102 122 -188 0 -113 -83 -197 -197 -197
-40 0 -113 22 -113 34 0 3 16 -2 35 -10 59 -24 149 -13 185 24 8 8 9 12 2 8
-12 -7 -32 30 -35 67 -1 9 -4 17 -8 17 -3 0 -14 16 -25 35 -10 19 -22 35 -26
35 -5 0 -8 8 -8 17 0 9 -3 13 -6 10 -9 -8 -41 34 -46 58 -1 11 -9 26 -15 33
-7 7 -13 20 -13 28 0 25 -21 15 -66 -30 -50 -49 -56 -49 -18 2 50 65 152 90
232 57z m-261 -137 c-3 -8 -6 -5 -6 6 -1 11 2 17 5 13 3 -3 4 -12 1 -19z m-10
-65 c-3 -10 -5 -2 -5 17 0 19 2 27 5 18 2 -10 2 -26 0 -35z m47 -108 l27 -40
-30 35 c-17 19 -31 39 -31 44 0 5 1 7 3 5 2 -2 15 -22 31 -44z m761 -1156
c-18 -93 -55 -194 -91 -256 -26 -45 -134 -176 -140 -171 -2 2 3 22 11 43 8 22
14 56 15 74 l0 35 -30 -48 c-44 -70 -116 -142 -194 -197 -38 -27 -73 -49 -78
-49 -4 0 3 17 16 38 13 20 27 48 31 62 7 25 7 24 -26 -6 -19 -17 -56 -46 -83
-64 l-49 -33 -34 19 c-19 10 -55 36 -80 58 l-45 40 22 -45 c12 -24 30 -53 39
-63 14 -17 10 -16 -24 4 -112 67 -186 137 -255 245 l-32 50 7 -50 c3 -27 13
-63 21 -79 8 -16 12 -31 10 -33 -2 -2 -30 25 -63 61 -68 72 -114 147 -143 231
-20 59 -53 215 -46 222 2 2 26 -12 54 -31 148 -99 347 -119 522 -53 30 12 57
20 60 20 3 -1 31 -12 64 -23 78 -28 176 -39 259 -29 75 9 197 56 254 98 21 16
40 24 41 19 2 -4 -4 -45 -13 -89z"/>
<path d="M4275 6376 c-65 -21 -137 -61 -198 -111 -66 -53 -73 -71 -19 -45 83
40 232 52 327 26 28 -7 78 -25 112 -40 80 -33 126 -34 158 -1 62 61 14 131
-117 170 -62 18 -206 19 -263 1z"/>
<path d="M5695 6376 c-92 -29 -135 -67 -135 -116 1 -46 44 -80 100 -80 17 0
53 11 80 25 71 36 153 55 238 55 78 0 182 -22 219 -46 38 -24 39 -16 2 22 -51
54 -144 112 -217 134 -75 23 -223 26 -287 6z"/>
<path d="M4266 6005 c-89 -31 -146 -105 -171 -220 -29 -129 5 -248 92 -325 50
-43 89 -55 162 -48 74 7 132 53 173 135 30 62 33 75 33 163 0 84 -3 102 -28
151 -33 68 -101 134 -153 148 -49 14 -60 13 -108 -4z"/>
<path d="M5868 6008 c-97 -26 -176 -145 -185 -278 -15 -221 145 -376 315 -304
174 72 213 369 68 522 -54 59 -125 80 -198 60z"/>
</g>
</svg>
